<?xml version="1.0" standalone="no"?>
<!DOCTYPE svg PUBLIC "-//W3C//DTD SVG 1.1//EN" "http://www.w3.org/Graphics/SVG/1.1/DTD/svg11.dtd" >
<svg xmlns="http://www.w3.org/2000/svg">
<metadata></metadata>
<defs>
<font id="thai_sans_literegular" horiz-adv-x="0" >
<font-face units-per-em="2048" ascent="1638" descent="-410" />
<missing-glyph horiz-adv-x="659" />
<glyph unicode="vender_chk" horiz-adv-x="2756" d="M82 178l391 893h86zM168 98l457 854l512 -954h-512v100h-457zM692 1071h1694l278 -876l-258 489h-135l-104 -201l-109 201h-129l-284 -539q-45 93 -132 197q5 0 22.5 18t37.5 61t20 93q0 87 -53 143t-172 56h-219v-500zM1264 -2v614h104q61 0 89 -27.5t28 -70.5 q0 -33 -11.5 -62.5t-28 -48.5t-34 -33.5t-29 -21t-14.5 -6.5q192 -192 201 -344h-305zM1694 -2l299 563l106 -203l-190 -360h-215zM2040 -2l299 563l299 -563h-598z" />
<glyph unicode=" "  horiz-adv-x="659" />
<glyph unicode="&#x09;" horiz-adv-x="659" />
<glyph unicode="&#xa0;" horiz-adv-x="659" />
<glyph unicode="!" horiz-adv-x="315" d="M92 0v115h115v-115h-115zM92 215v860h115v-860h-115z" />
<glyph unicode="&#x22;" horiz-adv-x="552" d="M111 737v338h114v-338h-114zM326 737v338h114v-338h-114z" />
<glyph unicode="#" horiz-adv-x="1062" d="M51 301l27 100h153l58 215h-154l25 101h157l78 287h119l-78 -287h287l78 287h119l-78 -287h176l-27 -101h-176l-57 -215h176l-29 -100h-174l-80 -301h-119l80 301h-286l-80 -301h-119l80 301h-156zM352 401h287l57 215h-286z" />
<glyph unicode="$" horiz-adv-x="733" d="M49 55v138q93 -107 291 -107q113 0 175.5 54.5t62.5 152.5q0 50 -22.5 87t-60 58t-85 40t-97 32t-97 35t-85 49t-60 73.5t-22.5 108.5q0 92 64.5 152t165.5 82v166h116v-160q167 -7 234 -74v-149q-23 50 -83.5 87.5t-174.5 37.5q-77 0 -136 -40.5t-59 -101.5 q0 -41 22 -72t58.5 -49t83 -36t94.5 -32.5t94.5 -39.5t83 -55.5t58.5 -81.5t22 -117q0 -285 -297 -305v-160h-116v160q-177 10 -230 67z" />
<glyph unicode="%" horiz-adv-x="1163" d="M55 854q0 143 55 220t146 77q88 0 139 -73t51 -212q0 -137 -56 -212.5t-144 -75.5q-86 0 -138.5 70t-52.5 206zM174 858q0 -107 20 -143.5t58 -36.5t59 38t21 144q0 191 -80 191q-39 0 -58.5 -41.5t-19.5 -151.5zM195 0l688 1233h129l-688 -1233h-129zM686 248 q0 143 55 220t146 77q88 0 139 -73t51 -212q0 -137 -56 -213t-144 -76q-86 0 -138.5 70.5t-52.5 206.5zM805 252q0 -107 20 -143.5t58 -36.5t59 38t21 144q0 190 -80 190q-39 0 -58.5 -41t-19.5 -151z" />
<glyph unicode="&#x26;" horiz-adv-x="1122" d="M78 260q0 109 57.5 187.5t175.5 132.5q-50 33 -83 88t-33 127q0 108 72 165.5t194 57.5q104 0 178 -56t74 -147q0 -90 -49.5 -146t-153.5 -100q96 -52 161.5 -120t119.5 -152q63 92 96 196.5t33 188.5v35h108q-5 -125 -49.5 -265t-122.5 -243q42 -54 91 -81.5t122 -27.5 v-100q-182 0 -287 123q-137 -137 -364 -137q-166 0 -253 65.5t-87 208.5zM193 260q0 -174 225 -174q183 0 297 117q-82 122 -123 168q-87 97 -193 137q-55 -24 -87 -42t-62.5 -46.5t-43.5 -67t-13 -92.5zM309 795q0 -117 109 -177q180 67 180 197q0 45 -46 71.5t-91 26.5 q-75 0 -113.5 -33t-38.5 -85z" />
<glyph unicode="'" horiz-adv-x="346" d="M111 737v338h114v-338h-114z" />
<glyph unicode="(" horiz-adv-x="448" d="M47 383q0 405 246 690h113q-244 -300 -244 -690q0 -386 244 -672h-113q-246 273 -246 672z" />
<glyph unicode=")" horiz-adv-x="448" d="M43 -289q244 286 244 672q0 390 -244 690h113q245 -284 245 -690q0 -400 -245 -672h-113z" />
<glyph unicode="*" horiz-adv-x="550" d="M55 788l168 86l-168 87l68 92l119 -113l-25 164h115l-23 -164l119 113l68 -92l-168 -87l168 -86l-68 -92l-119 113l23 -164h-115l25 164l-119 -113z" />
<glyph unicode="+" horiz-adv-x="653" d="M18 387v115h252v243h115v-243h250v-115h-250v-258h-115v258h-252z" />
<glyph unicode="," horiz-adv-x="317" d="M31 -223l55 90q45 71 57 133v115h115v-115q0 -82 -141 -223h-86z" />
<glyph unicode="-" horiz-adv-x="624" d="M111 395v101h401v-101h-401z" />
<glyph unicode="." horiz-adv-x="346" d="M111 0v115h114v-115h-114z" />
<glyph unicode="/" horiz-adv-x="471" d="M14 0l330 1233h115l-330 -1233h-115z" />
<glyph unicode="0" horiz-adv-x="907" d="M82 481q0 258 104 397.5t275 139.5q167 0 266.5 -129.5t99.5 -384.5q0 -126 -30.5 -225.5t-83 -163t-122 -96.5t-149.5 -33q-163 0 -261.5 126.5t-98.5 368.5zM197 487q0 -199 72 -300t184 -101q113 0 186.5 104.5t73.5 303.5q0 207 -73.5 315.5t-186.5 108.5 q-111 0 -183.5 -110t-72.5 -321z" />
<glyph unicode="1" horiz-adv-x="452" d="M2 739v101q108 42 225 164h111v-1004h-111v840q-135 -85 -225 -101z" />
<glyph unicode="2" horiz-adv-x="761" d="M90 0v94q0 49 26 99t67 93.5t90.5 88t99.5 89.5t91 88.5t67 93.5t26 99q0 91 -48.5 139t-129.5 48q-64 0 -133.5 -34t-118.5 -85v123q93 96 252 96q132 0 213.5 -73t81.5 -201q0 -61 -24.5 -120t-64 -107.5t-87.5 -94.5t-97 -88t-90.5 -81.5t-70 -83t-33.5 -83.5h504 v-100h-621z" />
<glyph unicode="3" horiz-adv-x="737" d="M84 23v127q46 -38 99.5 -51t131.5 -13q104 0 168 44.5t64 133.5q0 102 -84 152.5t-283 50.5v96q59 3 111.5 12t106 29t85 58t31.5 90q0 87 -44.5 126.5t-119.5 39.5q-158 0 -233 -56v111q46 28 97 36.5t136 8.5q118 0 196.5 -67t78.5 -167q0 -204 -197 -266 q101 -19 168.5 -82t67.5 -162q0 -139 -93 -213.5t-256 -74.5q-85 0 -138.5 7t-92.5 30z" />
<glyph unicode="4" horiz-adv-x="772" d="M12 244v100l463 660h113v-660h131v-100h-131v-244h-107v244h-469zM141 344h340v485z" />
<glyph unicode="5" horiz-adv-x="712" d="M96 8v123q50 -30 93.5 -38.5t107.5 -8.5q118 0 180 52t62 155t-66 162t-174 59q-75 0 -141 -8l-47 -6v506h475v-101h-361v-303l23 2q16 2 51 2q170 0 265 -82t95 -223q0 -151 -96.5 -232t-265.5 -81q-62 0 -87 0.5t-59.5 5.5t-54.5 16z" />
<glyph unicode="6" horiz-adv-x="794" d="M78 438q0 262 111 421t300 159q100 0 136 -10l37 -11v-102q-72 23 -173 23q-137 0 -215.5 -113.5t-78.5 -304.5q70 131 233 131q130 0 213.5 -92t83.5 -226q0 -153 -92.5 -240t-233.5 -87q-321 0 -321 452zM199 322q0 -111 56 -173.5t155 -62.5q90 0 144 53t54 154 q0 109 -56 173t-153 64q-86 0 -143 -60t-57 -148z" />
<glyph unicode="7" horiz-adv-x="698" d="M31 903v101h637v-70l-369 -934h-115l344 903h-497z" />
<glyph unicode="8" horiz-adv-x="804" d="M76 268q0 88 47.5 159t134.5 114q-63 35 -99 95.5t-36 129.5q0 107 78.5 179.5t201.5 72.5q115 0 199 -74.5t84 -177.5q0 -68 -39.5 -128.5t-103.5 -96.5q91 -41 139.5 -113t48.5 -160q0 -130 -93 -206t-235 -76q-150 0 -238.5 74.5t-88.5 207.5zM207 279 q0 -101 49.5 -147t146.5 -46q96 0 153.5 47.5t57.5 145.5q0 83 -60 145.5t-151 62.5q-86 0 -141 -58t-55 -150zM240 754q0 -70 45 -118t118 -48q66 0 116 49.5t50 116.5q0 69 -49.5 116.5t-116.5 47.5q-78 0 -120.5 -45t-42.5 -119z" />
<glyph unicode="9" horiz-adv-x="786" d="M70 692q0 144 88.5 242t230.5 98q148 0 234 -127t86 -344q0 -575 -430 -575q-108 0 -156 20v109q63 -29 178 -29q142 0 217.5 99t75.5 290q-56 -102 -219 -102q-130 0 -217.5 89.5t-87.5 229.5zM186 692q0 -106 52.5 -162.5t150.5 -56.5q49 0 88.5 20.5t62 51.5t34.5 64 t12 63q0 120 -50.5 190t-146.5 70q-81 0 -142 -72t-61 -168z" />
<glyph unicode=":" horiz-adv-x="241" d="M111 0v115h114v-115h-114zM111 602v115h114v-115h-114z" />
<glyph unicode=";" horiz-adv-x="288" d="M10 -223l56 90q45 71 57 133v115h115v-115q0 -81 -142 -223h-86zM123 602v115h115v-115h-115z" />
<glyph unicode="&#x3c;" horiz-adv-x="794" d="M4 311v54l680 380v-114l-516 -293l516 -252v-115z" />
<glyph unicode="=" horiz-adv-x="776" d="M111 252v100h616v-100h-616zM111 467v98h616v-98h-616z" />
<glyph unicode="&#x3e;" horiz-adv-x="794" d="M111 -29v115l516 252l-516 293v114l680 -380v-54z" />
<glyph unicode="?" horiz-adv-x="555" d="M41 836v127q87 55 227 55q109 0 186.5 -56.5t77.5 -162.5q0 -59 -25.5 -106.5t-62 -77.5t-72.5 -56t-61.5 -55.5t-25.5 -61.5v-227h-115v227q0 43 26 80.5t62.5 65l73 55t62.5 64t26 79.5q0 68 -43 100t-109 32q-77 0 -132 -17.5t-95 -64.5zM170 0v115h115v-115h-115z " />
<glyph unicode="@" horiz-adv-x="1302" d="M76 383q0 95 31 183.5t87 160t130 125t165 82.5t187 29q117 0 220.5 -38t178 -104t117.5 -159t43 -199q0 -161 -85 -263t-206 -102q-81 0 -118.5 37.5t-43.5 124.5q-37 -88 -83.5 -125t-123.5 -37q-100 0 -167.5 71t-67.5 208q0 134 93 231t220 97q53 0 92 -26t58 -65 l16 82h115l-57 -336q0 -63 16.5 -112t50.5 -49q44 0 79 27t55.5 68.5t31 85.5t10.5 83q0 49 -17.5 102.5t-55 106.5t-88.5 95t-125 68.5t-158 26.5q-106 0 -199.5 -46t-154.5 -117t-96.5 -154.5t-35.5 -161.5q0 -83 30.5 -161t87 -140t146 -99.5t199.5 -37.5q155 0 295 55 v-109q-136 -47 -295 -47q-163 0 -294.5 68t-207 191.5t-75.5 279.5zM455 377q0 -90 35 -134t85 -44q181 0 181 288q0 52 -28 84.5t-75 32.5q-85 0 -141.5 -61t-56.5 -166z" />
<glyph unicode="A" horiz-adv-x="915" d="M29 0l368 1004h121l369 -1004h-115l-102 276h-424l-103 -276h-114zM274 377h355l-176 495z" />
<glyph unicode="B" horiz-adv-x="788" d="M111 0v1004h278q134 0 210.5 -65t76.5 -171q0 -80 -49 -146.5t-127 -91.5q103 -18 165 -81t62 -164q0 -127 -93 -206t-241 -79h-282zM225 100h156q102 0 164.5 52.5t62.5 132.5q0 186 -250 186h-133v-371zM225 565h121q94 0 152.5 50.5t58.5 132.5q0 73 -51 114t-148 41 h-133v-338z" />
<glyph unicode="C" horiz-adv-x="915" d="M59 485q0 252 150 392.5t391 140.5q58 0 86.5 -1t67.5 -8t69 -22v-123q-114 54 -248 54q-173 0 -287 -121.5t-114 -311.5t102 -294.5t277 -104.5q142 0 270 64v-111q-56 -33 -120 -43t-162 -10q-222 0 -352 134t-130 365z" />
<glyph unicode="D" horiz-adv-x="972" d="M111 0v1004h272q528 0 528 -494q0 -230 -147 -370t-393 -140h-260zM225 100h146q196 0 310 109.5t114 300.5q0 393 -418 393h-152v-803z" />
<glyph unicode="E" horiz-adv-x="667" d="M111 0v1004h530v-101h-416v-352h373v-98h-373v-353h416v-100h-530z" />
<glyph unicode="F" horiz-adv-x="641" d="M111 0v1004h530v-101h-416v-352h373v-98h-373v-453h-114z" />
<glyph unicode="G" horiz-adv-x="993" d="M63 481q0 238 148 387.5t379 149.5q97 0 162 -8.5t120 -36.5v-129q-113 74 -294 74q-177 0 -288.5 -122.5t-111.5 -314.5t102.5 -293.5t282.5 -101.5q140 0 213 41v289h-227v100h344v-463q-72 -41 -151.5 -54t-192.5 -13q-220 0 -353 133.5t-133 361.5z" />
<glyph unicode="H" horiz-adv-x="976" d="M111 0v1004h114v-439h525v439h114v-1004h-114v467h-525v-467h-114z" />
<glyph unicode="I" horiz-adv-x="350" d="M111 0v1004h114v-1004h-114z" />
<glyph unicode="J" horiz-adv-x="471" d="M0 -14v112q31 -26 94 -26q82 0 125 72.5t43 207.5v652h115v-652q0 -184 -75.5 -282.5t-207.5 -98.5q-36 0 -94 15z" />
<glyph unicode="K" horiz-adv-x="876" d="M111 0v1004h114v-508l408 508h143l-272 -342l305 -662h-127l-258 561l-199 -248v-313h-114z" />
<glyph unicode="L" horiz-adv-x="630" d="M111 0v1004h112v-904h408v-100h-520z" />
<glyph unicode="M" horiz-adv-x="1239" d="M111 0v1004h153l354 -814l365 814h143v-1004h-110v829l-373 -829h-55l-365 825q4 -6 4 -16v-10v-799h-116z" />
<glyph unicode="N" horiz-adv-x="1019" d="M111 0v1004h145l539 -844v844h114v-1004h-143l-541 834v-834h-114z" />
<glyph unicode="O" horiz-adv-x="1107" d="M74 487q0 250 130.5 390.5t358.5 140.5q214 0 343.5 -138.5t129.5 -369.5q0 -251 -131 -387.5t-362 -136.5q-213 0 -341 135t-128 366zM188 487q0 -181 97.5 -291t257.5 -110q178 0 278.5 113.5t100.5 310.5q0 181 -99 294.5t-260 113.5q-175 0 -275 -117t-100 -314z" />
<glyph unicode="P" horiz-adv-x="724" d="M111 0v1004h270q163 0 250.5 -78t87.5 -230q0 -148 -97.5 -233.5t-269.5 -85.5h-125v-377h-116zM227 477h125q121 0 186.5 59.5t65.5 159.5q0 104 -52 155.5t-171 51.5h-154v-426z" />
<glyph unicode="Q" horiz-adv-x="1083" d="M47 487q0 250 132 397.5t358 147.5q215 0 345 -144t130 -378q0 -166 -60 -283.5t-174 -181.5q65 -19 115.5 -66t50.5 -122h-115q0 29 -20 56t-50 45t-54.5 28.5t-42.5 15.5q-75 -16 -144 -16q-215 0 -343 134.5t-128 366.5zM162 487q0 -182 97.5 -291.5t258.5 -109.5 q174 0 276.5 114.5t102.5 309.5q0 183 -100 302.5t-260 119.5q-171 0 -273 -123.5t-102 -321.5z" />
<glyph unicode="R" horiz-adv-x="868" d="M109 0v1004h301q128 0 215.5 -73t87.5 -202q0 -101 -63 -171.5t-165 -94.5q9 -2 18.5 -6.5t17 -9t16.5 -13t15 -14.5t15.5 -18t14 -17.5t14 -20.5t13.5 -20.5t14.5 -22.5t13.5 -22l190 -299h-139l-174 279q-49 77 -90.5 111t-104.5 34h-96v-424h-114zM223 532h162 q91 0 152 52t61 145q0 79 -57.5 126.5t-155.5 47.5h-162v-371z" />
<glyph unicode="S" horiz-adv-x="794" d="M84 55v138q32 -43 105.5 -75t185.5 -32t174.5 54.5t62.5 152.5q0 50 -22.5 87t-60 58t-84.5 40t-97 32t-97 35t-84.5 49t-60 73.5t-22.5 108.5q0 76 46.5 132t118 83t154.5 27q182 0 261 -47v-135q-29 32 -95 57t-166 25q-72 0 -132 -41t-60 -101q0 -41 22 -72t58.5 -49 t83 -36t94.5 -32.5t94.5 -39.5t83 -55.5t58.5 -81.5t22 -117q0 -51 -9 -93t-32.5 -83t-62 -69t-102 -45t-146.5 -17q-222 0 -291 69z" />
<glyph unicode="T" horiz-adv-x="712" d="M12 903v101h688v-101h-286v-903h-115v903h-287z" />
<glyph unicode="U" horiz-adv-x="944" d="M98 381v623h115v-615q0 -161 58 -232t192 -71q133 0 200.5 70t67.5 221v627h117v-609q0 -209 -95.5 -309t-289.5 -100q-188 0 -276.5 94t-88.5 301z" />
<glyph unicode="V" horiz-adv-x="911" d="M27 1004h114l312 -873l317 873h115l-367 -1004h-123z" />
<glyph unicode="W" horiz-adv-x="1392" d="M59 1004h115l238 -867l247 867h86l238 -852l236 852h114l-284 -1004h-123l-230 801l-221 -801h-129z" />
<glyph unicode="X" horiz-adv-x="958" d="M74 0l329 500l-305 504h140l243 -429l252 429h141l-317 -504l324 -500h-148l-252 422l-268 -422h-139z" />
<glyph unicode="Y" horiz-adv-x="808" d="M20 1004h127l252 -515l271 515h118l-329 -637v-367h-115v360z" />
<glyph unicode="Z" horiz-adv-x="849" d="M45 0v31l580 872h-537v101h713v-31l-588 -873h578v-100h-746z" />
<glyph unicode="[" horiz-adv-x="446" d="M111 -289v1364h311v-100h-201v-1163h201v-101h-311z" />
<glyph unicode="\" horiz-adv-x="471" d="M12 1233h115l330 -1233h-115z" />
<glyph unicode="]" horiz-adv-x="448" d="M23 -188h200v1163h-200v100h311v-1364h-311v101z" />
<glyph unicode="^" horiz-adv-x="854" d="M43 395l340 680h53l381 -680h-115l-292 516l-252 -516h-115z" />
<glyph unicode="_" horiz-adv-x="839" d="M111 0h616v-100h-616v100z" />
<glyph unicode="`" horiz-adv-x="325" d="M18 1133h115l160 -230h-94z" />
<glyph unicode="a" horiz-adv-x="753" d="M88 182q6 68 43 112.5t87 61.5t107.5 28t105.5 16t80 22t32 49q0 77 -53 118.5t-146 41.5q-141 0 -225 -123l-27 113q94 110 252 110q56 0 109.5 -15t100 -44.5t75 -81.5t28.5 -119v-471h-114v66q-66 -80 -199 -80q-108 0 -182 49t-74 147zM203 182q0 -26 11 -45 t26.5 -28.5t38.5 -15t39 -6.5t38 -1q125 0 187 88v164q-61 -41 -164 -41q-37 0 -75 -10.5t-69.5 -38t-31.5 -66.5z" />
<glyph unicode="b" horiz-adv-x="782" d="M109 0v1075h116v-475q43 71 103.5 101t146.5 30q142 0 219.5 -90t77.5 -260q0 -179 -91 -287t-245 -108q-75 0 -125.5 26.5t-85.5 85.5v-98h-116zM225 332q0 -95 61 -170.5t150 -75.5q221 0 221 295q0 126 -43 188t-139 62q-100 0 -175 -79t-75 -190v-30z" />
<glyph unicode="c" horiz-adv-x="724" d="M59 346q0 176 105.5 280.5t271.5 104.5q46 0 129 -10l53 -8v-119q-81 37 -182 37q-262 0 -262 -285q0 -135 60 -197.5t186 -62.5q116 0 198 43v-106q-36 -24 -78 -30.5t-108 -6.5q-174 0 -273.5 90.5t-99.5 269.5z" />
<glyph unicode="d" horiz-adv-x="786" d="M12 381q0 167 81 265.5t216 98.5q161 0 250 -145v475h117v-1075h-117v98q-35 -59 -85.5 -85.5t-125.5 -26.5q-154 0 -245 108t-91 287zM127 381q0 -295 221 -295q89 0 150 75.5t61 170.5v30q0 110 -76 196.5t-174 86.5q-182 0 -182 -264z" />
<glyph unicode="e" horiz-adv-x="774" d="M70 356q0 165 94 270t237 105q145 0 225.5 -87t80.5 -257v-63h-521q0 -123 64 -180.5t174 -57.5q135 0 229 72v-101q-93 -71 -229 -71q-162 0 -258 91.5t-96 278.5zM186 424h404q-4 103 -53 155t-136 52t-144.5 -54t-70.5 -153z" />
<glyph unicode="f" horiz-adv-x="507" d="M10 616v101h146v96q0 262 204 262q76 0 125 -22v-117q-22 31 -86 31q-69 0 -97 -33.5t-28 -120.5v-96h211v-101h-211v-630h-118v630h-146z" />
<glyph unicode="g" horiz-adv-x="843" d="M59 344q0 188 97.5 287.5t246.5 99.5q85 0 136.5 -27.5t93.5 -91.5v105h115v-694q0 -210 -95.5 -310t-298.5 -100q-131 0 -231 41l27 115q126 -58 204 -58q279 0 279 291v88q-49 -67 -93.5 -85.5t-136.5 -18.5q-145 0 -244.5 99.5t-99.5 258.5zM174 344q0 -110 62 -184 t167 -74q51 0 90.5 18t66.5 52.5t42 62.5t31 68v100q-12 37 -23 64t-32 63.5t-43.5 59.5t-57 40t-74.5 17q-103 0 -166 -87t-63 -200z" />
<glyph unicode="h" horiz-adv-x="800" d="M109 0v1075h116v-452q17 55 75.5 88.5t123.5 33.5q144 0 222.5 -74.5t78.5 -193.5v-477h-115v483q0 72 -53 117t-133 45q-83 0 -141 -77t-58 -210v-358h-116z" />
<glyph unicode="i" horiz-adv-x="319" d="M96 0v717h115v-717h-115zM96 831v115h115v-115h-115z" />
<glyph unicode="j" horiz-adv-x="292" d="M-115 -354l27 98q6 -2 18 -2q168 0 168 246v729h115v-705q0 -183 -73 -276.5t-210 -93.5q-17 0 -41 4h-4zM98 831v115h115v-115h-115z" />
<glyph unicode="k" horiz-adv-x="718" d="M109 0v1075h114v-751l314 393h145l-188 -236l221 -481h-125l-176 381l-191 -238v-143h-114z" />
<glyph unicode="l" horiz-adv-x="346" d="M109 0v1075h114v-1075h-114z" />
<glyph unicode="m" horiz-adv-x="1331" d="M109 0v717h116v-94q16 53 73.5 80.5t125.5 27.5q204 0 268 -123q70 123 234 123q145 0 223 -69t78 -185v-477h-115v483q0 71 -52 109.5t-134 38.5q-84 0 -141.5 -70.5t-57.5 -202.5v-358h-117v483q0 71 -52 109.5t-134 38.5q-84 0 -141.5 -70.5t-57.5 -202.5v-358h-116z " />
<glyph unicode="n" horiz-adv-x="825" d="M109 0v717h116v-94q16 53 73.5 80.5t125.5 27.5q145 0 223 -69t78 -185v-477h-115v483q0 71 -52 109.5t-134 38.5q-84 0 -141.5 -70.5t-57.5 -202.5v-358h-116z" />
<glyph unicode="o" horiz-adv-x="843" d="M72 348q0 185 93 284t265 99q155 0 249.5 -100t94.5 -266q0 -188 -93 -283.5t-267 -95.5q-156 0 -249 95.5t-93 266.5zM186 348q0 -119 62 -190.5t166 -71.5q116 0 180.5 74t64.5 205q0 119 -62.5 192.5t-166.5 73.5q-110 0 -177 -77t-67 -206z" />
<glyph unicode="p" horiz-adv-x="782" d="M109 -358v1075h116v-99q66 113 211 113q154 0 245 -108t91 -287q0 -170 -77.5 -260t-219.5 -90q-86 0 -146.5 30t-103.5 101v-475h-116zM225 354q0 -111 75 -189.5t175 -78.5q96 0 139 62t43 188q0 295 -221 295q-89 0 -150 -75.5t-61 -170.5v-31z" />
<glyph unicode="q" horiz-adv-x="786" d="M12 336q0 181 88.5 288t245.5 107q150 0 211 -113v99h117v-1075h-117v475q-76 -131 -248 -131q-142 0 -219.5 90t-77.5 260zM127 336q0 -127 42.5 -188.5t139.5 -61.5t172.5 79t75.5 189v31q0 95 -61 170.5t-150 75.5q-219 0 -219 -295z" />
<glyph unicode="r" horiz-adv-x="487" d="M109 0v717h114v-174q26 81 78 134.5t113 53.5q34 0 55 -6l14 -8v-119q-38 33 -69 33q-48 0 -93 -57.5t-71.5 -141.5t-26.5 -162v-270h-114z" />
<glyph unicode="s" horiz-adv-x="624" d="M84 31v131q59 -76 213 -76q87 0 121.5 25t34.5 92q0 43 -20.5 72.5t-53 45.5t-71.5 28t-78.5 26t-72 34t-53 57.5t-20.5 90.5q0 81 69.5 127.5t163.5 46.5q137 0 193 -29v-124q-71 53 -193 53q-56 0 -87 -16.5t-31 -57.5q0 -34 19.5 -57t50.5 -35t69 -23t76 -26.5t69 -39 t50.5 -67.5t19.5 -106q0 -46 -11 -82t-38 -68t-79.5 -49.5t-127.5 -17.5q-164 0 -213 45z" />
<glyph unicode="t" horiz-adv-x="509" d="M10 616v101h146v358h118v-358h211v-101h-211v-368q0 -87 28 -120.5t97 -33.5q61 0 86 31v-117q-49 -22 -125 -22q-204 0 -204 262v368h-146z" />
<glyph unicode="u" horiz-adv-x="825" d="M98 240v477h115v-484q0 -71 52 -109t134 -38q84 0 141.5 70t57.5 202v359h117v-717h-117v94q-16 -53 -74.5 -80.5t-124.5 -27.5q-145 0 -223 69t-78 185z" />
<glyph unicode="v" horiz-adv-x="724" d="M31 717h121l206 -600l217 600h121l-284 -717h-113z" />
<glyph unicode="w" horiz-adv-x="1116" d="M61 717h115l164 -584l178 584h100l168 -594l158 594h113l-217 -717h-119l-160 551l-176 -551h-115z" />
<glyph unicode="x" horiz-adv-x="770" d="M80 0l239 348l-233 369h133l170 -307l172 307h127l-242 -369l242 -348h-131l-176 285l-174 -285h-127z" />
<glyph unicode="y" horiz-adv-x="763" d="M68 717h129l213 -619l225 619h123l-336 -862q-89 -228 -256 -228q-50 0 -68 6l25 97q2 -2 14 -2q63 0 95 19t57 83l59 154z" />
<glyph unicode="z" horiz-adv-x="747" d="M74 0v33l413 583h-374v101h549v-39l-420 -578h415v-100h-583z" />
<glyph unicode="{" horiz-adv-x="452" d="M18 315v88q63 6 95 47t32 125v240q0 131 57.5 192.5t186.5 67.5v-100q-62 -5 -95.5 -47t-33.5 -117v-246q0 -174 -133 -211q133 -33 133 -211v-237q0 -89 28.5 -126.5t100.5 -37.5v-100q-244 0 -244 249v246q0 166 -127 178z" />
<glyph unicode="|" horiz-adv-x="346" d="M111 -360v1433h114v-1433h-114z" />
<glyph unicode="}" horiz-adv-x="452" d="M66 -258q71 0 99 37.5t28 126.5v237q0 178 133 211q-133 39 -133 211v246q0 155 -127 164v100q125 -6 183 -68t58 -192v-240q0 -84 32 -125t95 -47v-88q-127 -12 -127 -178v-246q0 -249 -241 -249v100z" />
<glyph unicode="~" horiz-adv-x="796" d="M92 338q0 87 45.5 139.5t126.5 52.5q35 0 72 -17t64 -37t65 -37t74 -17q33 0 55.5 29t23.5 79h87q-9 -192 -175 -192q-37 0 -76 16.5t-66.5 36.5t-61.5 36.5t-62 16.5q-88 0 -88 -106h-84z" />
<glyph unicode="&#xad;" horiz-adv-x="624" d="M111 395v101h401v-101h-401z" />
<glyph unicode="&#xe01;" horiz-adv-x="905" d="M74 674q11 37 36.5 73.5t67 73t107.5 59.5t145 23q67 0 132 -17t120 -49t89 -85.5t34 -120.5v-516q0 -64 -86 -115h-29v631q0 81 -79.5 126.5t-178.5 45.5q-98 0 -165 -33.5t-93 -81.5l129 -115q-43 -65 -43 -172v-401h-115v401q0 107 43 172l-57 52q-11 11 -26 23 t-23 18.5t-8 7.5z" />
<glyph unicode="&#xe02;" horiz-adv-x="774" d="M70 788v101h114q80 0 140.5 -59.5t60.5 -141.5q0 -39 -19 -80.5t-49 -68.5q-75 -69 -75 -166v-80q0 -39 6.5 -72t22.5 -65.5t48.5 -51t79.5 -18.5q44 0 76.5 19t49 51t24.5 66t8 71v596h115v-588q0 -63 -13 -116t-42.5 -99.5t-85 -73t-132.5 -26.5q-78 0 -133.5 26.5 t-84.5 73.5t-41.5 99.5t-12.5 115.5v72q0 55 14.5 98.5t35.5 70.5t42.5 49.5t36 46.5t14.5 50q0 36 -27 68t-59 32h-114z" />
<glyph unicode="&#xe03;" horiz-adv-x="778" d="M74 788v101l86 -29q41 35 82 35q56 0 101.5 -51.5t45.5 -126.5q0 -40 -18 -81t-49 -69q-27 -21 -51.5 -65t-24.5 -101v-108q0 -39 6.5 -72t22.5 -65.5t48.5 -51t79.5 -18.5q44 0 76.5 19t49 51t24.5 66t8 71v596h115v-588q0 -63 -13 -116t-42.5 -99.5t-85 -73 t-132.5 -26.5t-132.5 26.5t-84.5 73.5t-42 99.5t-13 115.5v100q0 55 14.5 98.5t35.5 71t42.5 50t36 46.5t14.5 50q0 27 -12.5 51.5t-38.5 24.5q-32 0 -63 -48z" />
<glyph unicode="&#xe04;" horiz-adv-x="935" d="M102 0v631q0 89 53 152t133.5 91.5t178.5 28.5q57 0 110 -10t100 -32t82 -53.5t55 -77t20 -99.5v-631h-115v631q0 83 -73.5 127.5t-178.5 44.5q-106 0 -178 -44.5t-72 -127.5v-293q124 149 244 149v-114q-117 0 -244 -152v-221h-115z" />
<glyph unicode="&#xe05;" horiz-adv-x="940" d="M102 0v631q0 107 73.5 188.5t172.5 81.5q19 0 44 -16t38 -28t39 -38q73 82 121 82q100 0 172 -81.5t72 -188.5v-631h-115v631q0 65 -39.5 105t-97.5 40q-7 0 -14 -2.5t-15.5 -8t-13.5 -9.5l-15 -12t-14 -11l-41 -45l-41 45q-55 43 -72 43q-56 0 -97.5 -40.5t-41.5 -104.5 v-293q28 31 50 52t54 46t67.5 38t72.5 13v-114q-122 0 -244 -152v-221h-115z" />
<glyph unicode="&#xe06;" horiz-adv-x="952" d="M88 788v101l86 -29q41 35 84 35q57 0 101 -51t44 -127q0 -85 -65 -150q-25 -15 -51.5 -63t-26.5 -103q0 -155 71 -235t173 -80q99 0 164 58t65 149v596h115v-588q0 -149 -83 -232t-261 -83q-82 0 -153.5 35t-90.5 102v-123h-115v401q0 55 15 98.5t36 71t42 50t36 46.5 t15 50q0 27 -12 51.5t-39 24.5q-28 0 -64 -48z" />
<glyph unicode="&#xe07;" horiz-adv-x="749" d="M49 602h115l121 -502q112 0 197 100t85 244q0 145 -87.5 244.5t-198.5 99.5h-17v101h17q163 0 282 -129t119 -316q0 -126 -58.5 -229.5t-150 -159t-192.5 -55.5h-93z" />
<glyph unicode="&#xe08;" horiz-adv-x="880" d="M53 719q17 28 44.5 57t69 59t101 49t125.5 19q90 0 169 -39t131.5 -103t83 -147t30.5 -170q0 -98 -34.5 -182t-92 -141t-133 -89t-156.5 -32h-94l-94 358q-3 15 -23 15h-57v86h86q79 0 104 -64l76 -295q129 0 216 102t87 242q0 153 -90.5 256t-208.5 103q-100 0 -182 -68 t-121 -151z" />
<glyph unicode="&#xe09;" horiz-adv-x="921" d="M61 387v100h86q63 0 89 -36.5t26 -106.5v-51q0 -88 65 -147.5t150 -59.5q230 0 230 332v143q0 61 -24.5 114t-81.5 90.5t-138 37.5q-62 0 -116 -18t-92.5 -47.5t-64 -58.5t-45.5 -61l-36 136q124 149 354 149q157 0 257.5 -100t100.5 -242v-561h-114v123 q-39 -137 -230 -137q-161 0 -245.5 85t-84.5 230v37q0 15 -1 23.5t-7.5 17t-19.5 8.5h-58z" />
<glyph unicode="&#xe0a;" horiz-adv-x="819" d="M49 788v101h115q80 0 140.5 -59.5t60.5 -141.5q0 -40 -18.5 -80.5t-49.5 -68.5q-27 -21 -51.5 -65t-24.5 -101v-109q0 -38 7.5 -66.5t26.5 -55.5t57.5 -41.5t95.5 -14.5q60 0 104.5 40t63 90.5t18.5 98.5q0 73 -18.5 133.5t-59.5 100t-98 39.5v100q71 0 132 91.5 t68 224.5h115q0 -111 -47 -208.5t-143 -162.5q76 -24 121 -114.5t45 -203.5q0 -64 -14 -118t-46 -104t-93.5 -78.5t-147.5 -28.5q-72 0 -126 15t-87 40t-53.5 62.5t-28 77.5t-7.5 91v101q0 55 15 98.5t36 70.5t42 49.5t36 46.5t15 50q0 37 -26 68.5t-60 31.5h-115z" />
<glyph unicode="&#xe0b;" horiz-adv-x="825" d="M53 788v101l86 -29q41 35 84 35q54 0 100 -51.5t46 -126.5q0 -40 -18.5 -81t-49.5 -69q-27 -21 -51.5 -65t-24.5 -101v-137q0 -38 7.5 -66.5t26.5 -55.5t57.5 -41.5t95.5 -14.5q60 0 104.5 40t63 90.5t18.5 98.5q0 113 -46 193t-128 80v100q71 0 131.5 91.5t67.5 224.5 h114q0 -22 -2 -47t-13 -71t-30 -87t-56.5 -87.5t-88.5 -78.5q76 -24 121 -115.5t45 -202.5q0 -64 -14 -118t-46 -104t-93.5 -78.5t-147.5 -28.5q-89 0 -150 21.5t-93 63t-45 89.5t-13 112v129q0 55 14.5 98.5t35.5 71t42.5 50t36 46.5t14.5 50q0 27 -12.5 51.5t-38.5 24.5 q-33 0 -64 -48z" />
<glyph unicode="&#xe0c;" horiz-adv-x="1470" d="M88 674q40 113 135 171t223 58q166 0 269.5 -81t103.5 -191v-201q0 -164 70 -254t174 -90q95 0 140.5 55t45.5 152v596h115v-588q0 -75 -13.5 -129.5t-46.5 -98t-93 -65.5t-148 -22q-81 0 -152.5 35.5t-91.5 101.5v-123h-114v631q0 55 -42 95.5t-99.5 58.5t-117.5 18 q-103 0 -169 -33.5t-89 -81.5l129 -115q-43 -50 -43 -172v-251q0 -50 29 -50h57v-100h-86q-62 0 -88 37.5t-26 105.5v258q0 122 43 172l-58 52q-12 11 -27.5 23t-23 18t-6.5 8z" />
<glyph unicode="&#xe0d;" horiz-adv-x="1437" d="M55 674q40 112 137 170.5t222 58.5q167 0 269.5 -80.5t102.5 -191.5v-338q0 -96 46 -151.5t141 -55.5q104 0 174 90t70 254v459h114v-805q0 -82 -33.5 -149.5t-86.5 -109t-115 -63.5t-123 -22q-185 0 -279 100l62 97q87 -97 217 -97q103 0 173.5 73t70.5 200v10 q-19 -67 -90.5 -102t-153.5 -35q-88 0 -148 22t-93 65.5t-46.5 98t-13.5 129.5v330q0 81 -79.5 126.5t-178.5 45.5q-98 0 -165 -33.5t-93 -81.5l129 -115q-43 -65 -43 -172v-251q0 -50 28 -50h58v-100h-86q-115 0 -115 143v258q0 107 43 172l-57 52q-11 11 -26 23 t-23.5 18.5t-8.5 7.5z" />
<glyph unicode="&#xe0e;" horiz-adv-x="923" d="M72 0v100h57q31 0 31 50v251q0 122 43 172l-58 52q-12 11 -27.5 23t-23 18t-6.5 8q40 113 135 171t223 58q166 0 269.5 -81t103.5 -191v-875q-4 -33 -15.5 -62t-34.5 -59t-66 -47.5t-101 -17.5q-127 0 -227 100q-109 -100 -287 -100v100q172 0 287 115q42 -34 70.5 -54.5 t74 -40.5t84.5 -20q23 0 41 7.5t29.5 23t17.5 26.5t13 29v875q0 55 -42 95.5t-99.5 58.5t-117.5 18q-103 0 -169 -33.5t-89 -81.5l129 -115q-43 -50 -43 -172v-258q0 -63 -40 -103t-105 -40h-57z" />
<glyph unicode="&#xe0f;" horiz-adv-x="925" d="M74 0v100h57q31 0 31 50v251q0 122 43 172l-58 52q-11 11 -26 23t-23 18.5t-8 7.5q40 113 135.5 171t223.5 58q166 0 269 -80.5t103 -191.5v-875q-2 -26 -8 -49t-20.5 -49t-35.5 -44.5t-57 -31t-82 -12.5q-81 0 -169 100l-72 -100l-78 100q-116 -100 -209 -100v100 q41 0 83.5 21t64 39t61.5 55l78 -100l72 100q32 -46 77.5 -80.5t94.5 -34.5q31 0 51 15.5t25.5 31t9.5 39.5v875q0 55 -41.5 95.5t-98.5 58.5t-118 18q-99 0 -166 -33.5t-93 -81.5l129 -115q-43 -50 -43 -172v-258q0 -63 -40 -103t-105 -40h-57z" />
<glyph unicode="&#xe10;" horiz-adv-x="886" d="M43 719q17 28 44.5 57t69 59t101 49t125.5 19q65 0 141 -26q28 10 44.5 17t45 22.5t43.5 38t15 49.5h114q0 -74 -52.5 -120t-115.5 -61q86 -65 132.5 -165t46.5 -214q0 -98 -34.5 -182t-92 -141t-133 -89t-156.5 -32h-94l-92 344q-6 14 -25 14h-57v101h86q79 0 104 -64 l78 -295q128 0 214.5 102.5t86.5 241.5q0 153 -90.5 256t-208.5 103q-100 0 -182 -68t-121 -151zM80 -330q108 0 223 115l72 -100l63 100q22 -42 63.5 -77.5t80.5 -35.5q38 0 54.5 24t16.5 60q0 73 -28 101h114q29 -29 29 -101q0 -33 -9.5 -64t-30 -59.5t-59 -45.5 t-89.5 -17q-65 0 -142 100l-63 -100l-72 100q-116 -100 -223 -100v100z" />
<glyph unicode="&#xe11;" horiz-adv-x="962" d="M88 788v101l86 -29q41 35 82 35q70 0 121 -80l10 -22q110 110 227 110q140 0 192 -85t52 -259v-559h-115v565q0 131 -31.5 184.5t-97.5 53.5q-55 0 -137.5 -75.5t-144.5 -183.5t-62 -190v-354h-114v313q0 157 106 320q27 48 27 84q0 27 -12.5 51.5t-38.5 24.5 q-33 0 -64 -48z" />
<glyph unicode="&#xe12;" horiz-adv-x="1490" d="M94 459q0 116 22 204t60 138.5t84 75t100 24.5q39 0 121 -82q19 27 56.5 54.5t62.5 27.5q101 0 170.5 -81t69.5 -189v-201q0 -164 69.5 -254t171.5 -90q95 0 142 55.5t47 151.5v596h114v-588q0 -75 -13.5 -129.5t-46 -98t-93.5 -65.5t-150 -22q-80 0 -153.5 35.5 t-87.5 101.5v-123h-115v631q0 67 -38.5 120.5t-92.5 53.5q-16 0 -37 -13.5t-35 -29.5l-41 -45l-43 45q-43 43 -71 43q-24 0 -50 -18t-51 -55.5t-41 -108.5t-16 -164q0 -94 31.5 -181.5t95.5 -146.5t145 -59q56 0 84 20v-94q-27 -12 -84 -12q-89 0 -163.5 40.5t-122.5 107.5 t-74.5 151.5t-26.5 173.5z" />
<glyph unicode="&#xe13;" horiz-adv-x="1474" d="M88 674q40 113 135 171t223 58q166 0 269.5 -81t103.5 -191v-338q0 -96 46 -151.5t141 -55.5q101 0 172 90.5t71 253.5v459h115v-889h-115v123q-23 -67 -92.5 -102t-150.5 -35q-90 0 -150.5 22t-92.5 66t-45 97.5t-13 129.5v330q0 55 -42 95.5t-99.5 58.5t-117.5 18 q-103 0 -169 -33.5t-89 -81.5l129 -115q-43 -50 -43 -172v-251q0 -50 29 -50h57v-100h-86q-62 0 -88 37.5t-26 105.5v258q0 122 43 172l-58 52q-12 11 -27.5 23t-23 18t-6.5 8z" />
<glyph unicode="&#xe14;" horiz-adv-x="925" d="M76 459q0 112 34.5 200t91.5 139.5t123.5 78t137.5 26.5q97 0 176 -28.5t130.5 -91.5t51.5 -152v-631h-114v631q0 84 -69.5 128t-174.5 44q-50 0 -97 -20.5t-87 -60t-64.5 -108t-24.5 -155.5q0 -96 32 -180t95.5 -138.5t145.5 -54.5q54 0 86 20v-108q-35 -12 -86 -12 q-76 0 -146 34t-123.5 94.5t-85.5 150t-32 194.5z" />
<glyph unicode="&#xe15;" horiz-adv-x="933" d="M82 459q0 116 22.5 204t61 138.5t84.5 75t98 24.5q19 0 44 -16t38 -28t39 -38q73 82 121 82q98 0 167.5 -81t69.5 -189v-631h-114v631q0 66 -38 113t-93 47q-7 0 -14 -2.5t-15.5 -8t-13.5 -9.5l-15 -12t-14 -11l-41 -46l-41 46q-55 43 -72 43q-25 0 -50 -15.5t-51 -50.5 t-42 -104t-16 -162q0 -95 33 -179.5t96.5 -139t142.5 -54.5q54 0 86 20v-108q-35 -12 -86 -12q-88 0 -162.5 40.5t-123 107.5t-75 151.5t-26.5 173.5z" />
<glyph unicode="&#xe16;" horiz-adv-x="905" d="M74 674q40 113 135 171t223 58q166 0 269.5 -81t103.5 -191v-516q0 -58 -86 -115h-29v631q0 55 -42 95.5t-99 58.5t-117 18q-103 0 -169 -33.5t-89 -81.5l129 -115q-43 -50 -43 -172v-251q0 -50 29 -50h57v-100h-86q-115 0 -115 143v258q0 122 43 172l-57 52 q-11 9 -26.5 22t-23 19t-7.5 8z" />
<glyph unicode="&#xe17;" horiz-adv-x="915" d="M111 0v889h114v-121q19 65 91 100t153 35q176 0 260 -83.5t84 -231.5v-588h-115v594q0 91 -67 150t-162 59q-104 0 -174 -90t-70 -254v-459h-114z" />
<glyph unicode="&#xe18;" horiz-adv-x="886" d="M84 690q0 213 330 213q96 0 182 -15t124.5 -28.5t49.5 -21.5v-142l-22 11q-23 11 -34 16t-39 17t-47.5 18.5l-49.5 16.5t-54.5 15t-54 9t-55.5 4q-119 0 -167 -27t-48 -86q0 -49 33 -75.5t86.5 -34t117.5 -11t128 -15t117.5 -36t86.5 -83t33 -148.5q0 -124 -82.5 -212.5 t-218.5 -88.5h-115q-132 0 -202 87t-70 216v129h114v-137q0 -77 49 -136t138 -59h57q89 0 152 57.5t63 126.5q0 60 -20.5 100.5t-55.5 60t-80 29.5t-95 13.5l-100 7t-95 14t-80 31t-55.5 62t-20.5 102.5z" />
<glyph unicode="&#xe19;" horiz-adv-x="915" d="M102 301v588h115v-596q0 -91 65 -149t164 -58q101 0 172.5 90.5t71.5 253.5v459h115v-889h-115v123q-23 -66 -92.5 -101.5t-151.5 -35.5q-177 0 -260.5 83.5t-83.5 231.5z" />
<glyph unicode="&#xe1a;" horiz-adv-x="892" d="M102 301v588h115v-596q0 -79 48 -143t138 -64h86q87 0 137 64.5t50 142.5v596h115v-588q0 -82 -28.5 -151.5t-92 -116.5t-152.5 -47h-143q-89 0 -152.5 47t-92 116.5t-28.5 151.5z" />
<glyph unicode="&#xe1b;" horiz-adv-x="843" d="M51 301v588h115v-596q0 -50 18 -95t61.5 -78.5t106.5 -33.5h86q87 0 137 64.5t50 142.5v854h114v-846q0 -60 -17 -115t-49 -100.5t-85.5 -72.5t-120.5 -27h-143q-90 0 -153.5 47t-91.5 116.5t-28 151.5z" />
<glyph unicode="&#xe1c;" horiz-adv-x="1046" d="M90 674q0 215 133 215h86v-101h-57q-45 0 -45 -116q0 -234 90 -443l180 416h74l176 -416q94 175 121 660h115q-32 -543 -179 -889h-75l-195 487l-192 -487h-76q-144 349 -156 674z" />
<glyph unicode="&#xe1d;" horiz-adv-x="1009" d="M41 674q0 37 5.5 70.5t18.5 68.5t41 55.5t68 20.5h86v-101h-57q-45 0 -45 -116q0 -234 90 -443l180 416h76l174 -416q127 231 127 918h119q0 -210 -16 -392t-46 -322.5t-59 -237t-68 -195.5h-76l-192 487l-195 -487h-75q-144 349 -156 674z" />
<glyph unicode="&#xe1e;" horiz-adv-x="1193" d="M68 889h116l187 -637l188 637h74l186 -637l189 637h116l-258 -889h-75l-195 664l-193 -664h-75z" />
<glyph unicode="&#xe1f;" horiz-adv-x="1224" d="M31 889h116l187 -637l188 637h74l186 -637l265 895h116l-334 -1147h-75l-195 664l-192 -664h-78z" />
<glyph unicode="&#xe20;" horiz-adv-x="921" d="M74 0v100h57q31 0 31 50v251q0 122 43 172l-58 52q-11 11 -26 23t-23 18.5t-8 7.5q40 113 135.5 171t223.5 58q166 0 269 -80.5t103 -191.5v-516q0 -64 -86 -115h-28v631q0 55 -41.5 95.5t-98.5 58.5t-118 18q-99 0 -166 -33.5t-93 -81.5l129 -115q-43 -50 -43 -172v-258 q0 -63 -40 -103t-105 -40h-57z" />
<glyph unicode="&#xe21;" horiz-adv-x="915" d="M111 0v889h114v-459q0 -164 70 -254t174 -90q98 0 163.5 58t65.5 149v596h115v-588q0 -148 -84 -231.5t-260 -83.5q-81 0 -152.5 35.5t-91.5 101.5v-123h-114z" />
<glyph unicode="&#xe22;" horiz-adv-x="872" d="M82 301q0 150 166 203q-137 64 -137 184q0 55 20 97t54 66.5t72 37t81 14.5q57 0 84 -10l18 -10v-115l-22 10q-30 10 -78 10q-49 0 -82 -29t-33 -71q0 -63 64.5 -96t167.5 -33v-100q-122 0 -191 -48.5t-69 -109.5q0 -87 55.5 -151t173.5 -64q61 0 107.5 19t72 50.5 t37.5 66t12 71.5v596h115v-588q0 -62 -18.5 -115.5t-57 -99.5t-107.5 -73t-161 -27q-93 0 -162 26.5t-107.5 73t-56.5 100t-18 115.5z" />
<glyph unicode="&#xe23;" horiz-adv-x="741" d="M90 45v133q29 -38 93 -65t165 -27q201 0 201 172q0 52 -25.5 87t-66 52.5t-89 30t-97.5 29t-89.5 41t-66 72.5t-25.5 118q0 101 86 158t201 57q152 0 231 -65v-146q-52 111 -231 111q-71 0 -121.5 -30.5t-50.5 -84.5q0 -47 24 -77.5t63 -46t86 -28t95 -30.5t89 -44.5 t69 -78.5t33 -125q0 -57 -14 -102.5t-47.5 -85.5t-98 -62t-156.5 -22q-199 0 -258 59z" />
<glyph unicode="&#xe24;" horiz-adv-x="858" d="M23 674q35 111 133 170t225 59q165 0 269 -81t104 -191v-946q0 -36 -27 -69t-59 -46h-29v1061q0 55 -42 95.5t-99 58.5t-117 18q-103 0 -169 -33.5t-89 -81.5l129 -115q-43 -50 -43 -172v-251q0 -50 29 -50h55v-100h-84q-115 0 -115 143v258q0 111 41 172l-55 52 q-12 11 -27.5 23t-23 18t-6.5 8z" />
<glyph unicode="&#xe25;" horiz-adv-x="872" d="M98 229q0 74 35.5 128.5t92 81.5t110.5 38.5t108 11.5q7 0 28.5 -1t33.5 -1q44 0 73.5 4t53.5 21.5t24 48.5q0 96 -68.5 169t-174.5 73q-90 0 -162 -52t-117 -126l-33 131q120 147 312 147q92 0 172 -37t133 -117t53 -188v-561h-115v418q-22 -31 -200 -31q-25 0 -62 -7.5 t-80 -24t-72.5 -49.5t-29.5 -77q0 -82 51.5 -112.5t163.5 -30.5q61 0 86 14v-100q-32 -14 -100 -14q-167 0 -241.5 57.5t-74.5 185.5z" />
<glyph unicode="&#xe26;" horiz-adv-x="874" d="M23 0v100h57q29 0 29 50v251q0 122 43 172l-58 52q-11 11 -26 23t-23 18.5t-8 7.5q40 112 136.5 170.5t221.5 58.5q166 0 269.5 -81t103.5 -191v-946q0 -38 -26.5 -69.5t-59.5 -45.5h-29v1061q0 55 -41.5 95.5t-98.5 58.5t-118 18q-98 0 -165 -33.5t-93 -81.5l129 -115 q-43 -65 -43 -172v-258q0 -63 -40 -103t-103 -40h-57z" />
<glyph unicode="&#xe27;" horiz-adv-x="890" d="M72 731q106 172 331 172q115 0 211 -62.5t149.5 -167.5t53.5 -229q0 -194 -121.5 -326t-292.5 -132q-78 0 -158.5 28t-127.5 84l33 115q29 -41 99 -84t154 -43q124 0 211.5 105.5t87.5 252.5t-87.5 253t-211.5 106q-54 0 -103.5 -20.5t-86 -55.5t-61 -66t-43.5 -65z" />
<glyph unicode="&#xe28;" horiz-adv-x="933" d="M80 0v631q0 89 53.5 152.5t134 91.5t178.5 28q76 0 146 -20q51 15 90 45.5t39 75.5h115q0 -112 -136 -170q111 -70 111 -203v-631h-115v631q0 83 -72 127.5t-178 44.5q-105 0 -178 -44.5t-73 -127.5v-293q38 43 67 70t78.5 53t97.5 26v-114q-71 0 -129.5 -43t-113.5 -109 v-221h-115z" />
<glyph unicode="&#xe29;" horiz-adv-x="944" d="M102 301v588h115v-596q0 -78 49 -142.5t137 -64.5h86q62 0 106 33.5t62.5 79t18.5 94.5v137h-187v100h187v359h115v-359h86v-100h-86v-129q0 -82 -28.5 -151.5t-92 -116.5t-152.5 -47h-143q-89 0 -152.5 47t-92 116.5t-28.5 151.5z" />
<glyph unicode="&#xe2a;" horiz-adv-x="868" d="M76 229q0 74 35.5 128.5t92 81.5t110.5 38.5t108 11.5q7 0 28 -1t33 -1q32 0 55.5 2.5t47.5 9.5t36.5 22.5t12.5 39.5q0 96 -69 169t-175 73q-153 0 -262 -154l-31 127q119 127 293 127q65 0 133 -22q133 42 133 123h115q0 -123 -149 -175q127 -95 127 -268v-561h-115 v418q-31 -31 -201 -31q-25 0 -62 -7.5t-80 -24t-72.5 -49.5t-29.5 -77q0 -80 57.5 -111.5t158.5 -31.5q61 0 86 14v-100q-32 -14 -101 -14q-315 0 -315 243z" />
<glyph unicode="&#xe2b;" horiz-adv-x="868" d="M111 0v889h114v-389l389 389h162l-270 -271q112 -32 188 -117t76 -214v-287h-115v258q0 121 -67.5 192.5t-169.5 79.5l-193 -194v-336h-114z" />
<glyph unicode="&#xe2c;" horiz-adv-x="1222" d="M31 889h119l186 -637l188 637h74l186 -637l138 465q8 24 8 51q0 100 -170 178q69 22 129 48.5t110 68.5t50 84h116q0 -136 -245 -201q51 -25 87.5 -76t36.5 -108q0 -17 -4 -45l-211 -717h-75l-193 664l-194 -664h-76z" />
<glyph unicode="&#xe2d;" horiz-adv-x="950" d="M70 602q36 135 147 218t244 83q98 0 179 -42t131.5 -109.5t78 -147.5t27.5 -160q0 -101 -35 -188.5t-93 -145.5t-133 -91t-155 -33q-153 0 -267 99.5t-114 231.5q0 53 31.5 89t105.5 36h158v-96h-144q-27 0 -35 -7t-8 -22q0 -74 83 -152.5t190 -78.5q120 0 210.5 101 t90.5 257q0 154 -89.5 256.5t-211.5 102.5q-99 0 -172.5 -65t-98.5 -136h-120z" />
<glyph unicode="&#xe2e;" horiz-adv-x="933" d="M45 602q39 137 147.5 219t245.5 82q73 0 140 -26q27 9 45 16.5t45.5 23t42 38t14.5 49.5h115q0 -74 -51 -119t-115 -60q87 -66 132.5 -170.5t45.5 -210.5q0 -101 -35.5 -188.5t-93.5 -145.5t-132 -91t-153 -33q-154 0 -268.5 99.5t-114.5 231.5q0 111 138 111h157v-82 h-143q-25 0 -34 -7t-9 -22q0 -74 83 -152.5t191 -78.5q116 0 207.5 101.5t91.5 256.5q0 154 -89.5 256.5t-209.5 102.5q-53 0 -101 -20.5t-81.5 -52t-56 -64.5t-33.5 -64h-121z" />
<glyph unicode="&#xe2f;" horiz-adv-x="794" d="M12 889h115q25 -92 72 -140.5t129 -48.5q87 0 147.5 48.5t85.5 140.5h125v-580q0 -162 -37.5 -235.5t-148.5 -73.5h-15v100h15q19 0 29.5 5.5t21.5 25.5t15.5 65t4.5 119v430q-20 -36 -47 -65t-79.5 -54.5t-116.5 -25.5q-128 0 -210.5 76.5t-105.5 212.5z" />
<glyph unicode="&#xe30;" horiz-adv-x="495" d="M98 258v86h115v-80q0 -28 17 -38.5t69 -10.5h172l-25 -100h-176q-84 0 -128 39t-44 104zM98 717v86h115v-78q0 -30 16.5 -40.5t69.5 -10.5h172l-25 -101h-176q-84 0 -128 39.5t-44 104.5z" />
<glyph unicode="&#xe31;" d="M-502 1219v86h115v-80q0 -28 16.5 -38.5t69.5 -10.5h301l-27 -101h-303q-84 0 -128 38t-44 106z" />
<glyph unicode="&#xe32;" horiz-adv-x="743" d="M8 692v146q108 65 279 65q62 0 123 -20t114.5 -58.5t87 -104t33.5 -147.5v-573h-115v545q0 122 -69.5 190t-173.5 68q-97 0 -167.5 -31.5t-111.5 -79.5z" />
<glyph unicode="&#xe33;" horiz-adv-x="743" d="M-322 1206q0 66 48 115t114 49q65 0 113.5 -49t48.5 -115t-48 -112.5t-114 -46.5t-114 47t-48 112zM-225 1206q0 -27 18 -45t47 -18t47.5 18t18.5 45q0 29 -18.5 48.5t-47.5 19.5t-47 -19t-18 -49zM8 692v146q108 65 279 65q62 0 123 -20t114.5 -58.5t87 -104 t33.5 -147.5v-573h-115v545q0 122 -69.5 190t-173.5 68q-97 0 -167.5 -31.5t-111.5 -79.5z" />
<glyph unicode="&#xe34;" d="M-676 1075l31 101h543v-101h-574z" />
<glyph unicode="&#xe35;" d="M-676 1075l31 101h428v129h115v-230h-574z" />
<glyph unicode="&#xe36;" d="M-657 1075l30 101h318l-4 16q0 63 34.5 102t94.5 39q56 0 92.5 -36.5t36.5 -92.5t-36.5 -92.5t-92.5 -36.5h-473zM-227 1204q0 -19 12 -31t31 -12t31 12t12 31t-12 31t-31 12t-31 -12t-12 -31z" />
<glyph unicode="&#xe37;" d="M-676 1075l31 101h256v129h115v-129h57v129h115v-230h-574z" />
<glyph unicode="&#xe38;" d="M-303 -172h86q115 0 115 -143v-144h-115v135q0 52 -29 52h-57v100z" />
<glyph unicode="&#xe39;" d="M-561 -172h86q45 0 68.5 -20.5t30.5 -50t12 -59.5t22.5 -50.5t52.5 -20.5q72 0 72 58v143h115v-152q0 -69 -39.5 -109t-147.5 -40q-107 0 -146.5 40t-39.5 109q0 52 -29 52h-57v100z" />
<glyph unicode="&#xe3a;" d="M-217 -172h115v-115h-115v115z" />
<glyph unicode="&#xe3f;" horiz-adv-x="745" d="M88 0v1004h195v172h114v-175q120 -7 188 -72t68 -161q0 -81 -48.5 -147.5t-129.5 -90.5q104 -18 167 -81t63 -164q0 -123 -84 -200t-224 -85v-172h-114v172h-195zM203 100h155q102 0 165 52.5t63 132.5q0 186 -250 186h-133v-371zM203 565h121q94 0 151 50.5t57 132.5 q0 73 -49.5 114t-146.5 41h-133v-338z" />
<glyph unicode="&#xe40;" horiz-adv-x="337" d="M109 143v746h114v-754q0 -49 29 -49h57v-86h-86q-62 0 -88 37.5t-26 105.5z" />
<glyph unicode="&#xe41;" horiz-adv-x="729" d="M109 143v746h114v-754q0 -49 29 -49h57v-86h-86q-114 0 -114 143zM453 143v746h114v-754q0 -49 29 -49h57v-86h-86q-114 0 -114 143z" />
<glyph unicode="&#xe42;" horiz-adv-x="305" d="M35 1153q0 93 68.5 136.5t220.5 43.5h235v-100h-207h-9q-44 0 -63 -0.5t-47 -3t-39 -7.5t-23.5 -14.5t-16.5 -24.5t-4 -36q0 -27 15 -70.5t29.5 -107t14.5 -138.5v-696q0 -49 29 -49h55v-86h-84q-115 0 -115 143v688q0 75 -15 138.5t-29.5 108.5t-14.5 75z" />
<glyph unicode="&#xe43;" horiz-adv-x="333" d="M-254 1231q79 102 238 102q139 0 212.5 -75t73.5 -177q0 -30 -14 -74.5t-28.5 -108t-14.5 -138.5v-625q0 -49 29 -49h57v-86h-86q-115 0 -115 143v617q0 75 14.5 138t29 106.5t14.5 70.5q0 68 -50.5 113t-150.5 45q-55 0 -101 -40.5t-71 -90.5z" />
<glyph unicode="&#xe44;" horiz-adv-x="352" d="M-266 1233v100h14q77 0 150 -73q16 29 51 51t84 22q107 0 153.5 -70t46.5 -210v-918q0 -49 29 -49h57v-86h-86q-114 0 -114 143v910q0 43 -2 68.5t-10.5 54.5t-27.5 43t-50 14q-29 0 -62.5 -32t-54.5 -68q-100 100 -164 100h-14z" />
<glyph unicode="&#xe45;" horiz-adv-x="747" d="M6 692v146q133 80 279 80q61 0 123 -22.5t115 -63.5t86.5 -109t33.5 -150v-888q0 -38 -26.5 -69.5t-59.5 -45.5h-29v975q0 125 -70.5 198.5t-172.5 73.5q-94 0 -165 -36.5t-114 -88.5z" />
<glyph unicode="&#xe46;" horiz-adv-x="802" d="M27 645q0 273 200 273q82 0 138 -74q52 74 135 74q107 0 153.5 -69.5t46.5 -209.5v-954q0 -38 -26.5 -69.5t-59.5 -45.5h-28v1069q0 34 -1 54t-5.5 47t-13.5 41.5t-27 25t-43 10.5q-54 0 -131 -100q-6 6 -26 28.5t-33 35t-34 24.5t-41 12q-21 0 -37 -8.5t-25 -20.5 t-15 -33t-8.5 -38.5t-4.5 -44.5v-13q9 -127 86 -198l-28 -109q-78 44 -125 118.5t-47 174.5z" />
<glyph unicode="&#xe47;" d="M-705 1202q0 41 17.5 71.5t42 46.5t58 25.5t57.5 12t49 2.5q185 0 315 72v-99q-103 -57 -293 -57q-137 0 -137 -74q0 -21 17 -39t40 -18q68 0 90 51h39q16 -51 74 -51q13 0 17 3t4 15v15h106v-19q0 -98 -100 -98q-21 0 -39.5 4t-30.5 10t-22 14t-15 14t-10 11l-4 6 q-22 -59 -109 -59q-24 0 -50 6.5t-53.5 21t-45 44t-17.5 69.5z" />
<glyph unicode="&#xe48;" d="M-217 1075v230h115v-230h-115z" />
<glyph unicode="&#xe49;" d="M-557 1204v101h98q35 0 58 -13.5t32.5 -32.5t15.5 -37.5t14.5 -32t23.5 -13.5h315l-27 -101h-317h-48.5t-31 3t-21 6t-9 14.5t-5.5 21.5v33v8q-2 21 -7 32t-21 11h-70z" />
<glyph unicode="&#xe4a;" d="M-668 1196q0 43 29 76t86 33q65 0 94 -29q29 29 101 29q35 0 58 -13.5t32 -32.5t15 -37.5t14.5 -32t23.5 -13.5h215l-27 -101h-217q-50 0 -76.5 15t-32 36t-6 42t-5.5 36t-23 15q-17 0 -30 -18.5t-13 -39.5h-57q0 22 -10.5 40t-26.5 18q-29 0 -29 -52q0 -35 11.5 -60 t25.5 -32h-115q-19 19 -28 44t-9 77z" />
<glyph unicode="&#xe4b;" d="M-332 1139v102h115v64h115v-64h114v-102h-114v-64h-115v64h-115z" />
<glyph unicode="&#xe4c;" d="M-217 1075v43q0 79 45 133t127 54h129l-25 -101h-75q-41 0 -63.5 -27t-22.5 -67v-35h-115z" />
<glyph unicode="&#xe4d;" d="M-322 1206q0 66 48 115t114 49q65 0 113.5 -49t48.5 -115t-48 -112.5t-114 -46.5t-114 47t-48 112zM-225 1206q0 -27 18 -45t47 -18t47.5 18t18.5 45q0 29 -18.5 48.5t-47.5 19.5t-47 -19t-18 -49z" />
<glyph unicode="&#xe4e;" d="M-240 1153q0 68 48.5 110t121.5 42q0 66 48.5 97.5t152.5 31.5v-72q-21 0 -32 -0.5t-28.5 -3t-26.5 -7.5t-21 -15.5t-17.5 -25.5t-9.5 -38t-4 -53q-48 0 -82.5 -18.5t-34.5 -59.5q0 -28 23 -66h-115q-23 38 -23 78z" />
<glyph unicode="&#xe4f;" horiz-adv-x="925" d="M76 358q0 160 113.5 273.5t273.5 113.5q163 0 275 -113t112 -274t-112 -274t-275 -113q-160 0 -273.5 113.5t-113.5 273.5zM190 358q0 -112 80 -192t193 -80q114 0 193 79.5t79 192.5q0 114 -79 193.5t-193 79.5q-113 0 -193 -79.5t-80 -193.5zM276 358q0 79 54.5 133 t132.5 54q79 0 132.5 -53.5t53.5 -133.5q0 -78 -53.5 -132t-132.5 -54q-78 0 -132.5 54t-54.5 132z" />
<glyph unicode="&#xe50;" horiz-adv-x="925" d="M76 358q0 160 112.5 266.5t274.5 106.5q165 0 276 -106t111 -267q0 -160 -111 -266t-276 -106q-162 0 -274.5 106.5t-112.5 265.5zM190 358q0 -112 80 -192t193 -80q114 0 193 79.5t79 192.5q0 114 -79 193.5t-193 79.5q-113 0 -193 -79.5t-80 -193.5z" />
<glyph unicode="&#xe51;" horiz-adv-x="901" d="M51 401q0 134 111.5 232t275.5 98q165 0 276 -106t111 -267q0 -183 -111.5 -306.5t-275.5 -123.5q-23 0 -37 2l29 99h8q114 0 193.5 95t79.5 234q0 114 -79.5 193.5t-193.5 79.5q-70 0 -125 -23t-85.5 -59.5t-46 -74.5t-15.5 -73q0 -172 119 -172q34 0 60 21t26 55v39 h114v-43q0 -65 -51.5 -118.5t-148.5 -53.5q-94 0 -164 72.5t-70 199.5z" />
<glyph unicode="&#xe52;" horiz-adv-x="1030" d="M-57 1047v100h28q71 0 123.5 -26t80.5 -69t41 -89t13 -95v-616q0 -49 17 -84t45 -51.5t54.5 -23.5t55.5 -7h269q30 0 57 7t54.5 23.5t44 51.5t16.5 84v207q0 66 -27.5 120t-83.5 54q-57 0 -94 -74q0 14 -27.5 44t-64.5 30q-40 0 -63 -26.5t-23 -61.5q0 -44 15.5 -74 t43.5 -44t49 -19.5t51 -8.5v-96q-25 3 -43 5.5t-49 10.5t-53 18t-48 29t-42.5 42.5t-27.5 58.5t-11 78q0 30 9 60t27.5 59.5t53 48t80.5 18.5q72 0 123 -51q5 6 14.5 14.5t41.5 22.5t67 14q53 0 92.5 -24t61 -64.5t32 -86.5t10.5 -97v-201q0 -73 -21.5 -127.5t-59.5 -85 t-82 -45t-95 -14.5h-325q-48 0 -91.5 14.5t-82 45t-61.5 85t-23 127.5v616q0 173 -172 173z" />
<glyph unicode="&#xe53;" horiz-adv-x="1155" d="M90 373q0 182 76 270t205 88q79 0 126.5 -42.5t80.5 -108.5q19 31 34 52.5t40.5 47t58 38.5t71.5 13q125 0 202 -88.5t77 -269.5q0 -220 -100 -373h-115q100 153 100 373q0 119 -43 189.5t-121 70.5q-55 0 -108.5 -64.5t-95.5 -152.5q-42 87 -96.5 152t-110.5 65 q-72 0 -119 -61t-47 -199q0 -122 54.5 -205.5t150.5 -83.5q36 0 53 10l18 8v-106q-27 -10 -71 -10q-131 0 -225.5 108t-94.5 279z" />
<glyph unicode="&#xe54;" horiz-adv-x="1036" d="M23 358q0 149 76 254t210 105h344q33 0 62 9t54.5 28.5t40.5 56t15 86.5v250h115v-244q0 -144 -72 -215.5t-186 -71.5h-373q-55 0 -95.5 -38t-59.5 -95.5t-19 -124.5t19 -124.5t59.5 -95.5t95.5 -38h348q-75 39 -132.5 116.5t-57.5 184.5h127q0 -61 28.5 -119t71 -96.5 t89.5 -62t85 -23.5h72v-100h-631q-134 0 -210 104.5t-76 253.5z" />
<glyph unicode="&#xe55;" horiz-adv-x="1044" d="M31 358q0 148 76.5 253.5t209.5 105.5h95q-13 32 -13 59q0 66 48 115t114 49t114 -49t48 -115q0 -23 -10 -53q54 11 87.5 54t33.5 120v250h114v-244q0 -144 -72 -215.5t-186 -71.5h-373q-56 0 -96 -38.5t-58 -95.5t-18 -124t18 -124t58 -95.5t96 -38.5h351 q-77 39 -135 116t-58 185h129q0 -61 28.5 -119t70.5 -96.5t89 -62t85 -23.5h71v-100h-631q-133 0 -209.5 105t-76.5 253zM500 776q0 -23 16 -40.5t39 -18.5h10q25 1 41.5 18.5t16.5 40.5q0 26 -18.5 45t-43.5 19t-43 -19t-18 -45z" />
<glyph unicode="&#xe56;" horiz-adv-x="1124" d="M35 1047v100h28q71 0 128 -30t89.5 -61.5t67.5 -114t46.5 -120.5t40.5 -148q15 -53 22 -79q60 70 122 103.5t158 33.5q149 0 254 -109t105 -262q0 -160 -107 -267t-252 -107q-112 0 -206.5 69t-131.5 178h119q30 -70 86 -108.5t133 -38.5q103 0 174.5 77.5t71.5 196.5 q0 116 -69.5 191t-176.5 80q-92 -4 -152.5 -56.5t-80.5 -144.5h-123q-82 318 -119 413q-54 141 -127 181q-42 23 -100 23z" />
<glyph unicode="&#xe57;" horiz-adv-x="1406" d="M27 373q0 182 76 270t202 88q25 0 48 -4.5t39 -11t30.5 -16t23.5 -18.5t16.5 -19.5t11.5 -17.5l8 -14l3 -7q0 3 5.5 13.5t19.5 27t33 31.5t50.5 25.5t68.5 10.5q123 0 200.5 -89t77.5 -269q0 -138 -51 -273q25 2 51.5 13t52 31t42 55.5t16.5 79.5v618q0 49 12.5 95 t40.5 89t80.5 69t124.5 26h28v-101q-172 0 -172 -172v-616q0 -73 -23 -130t-61 -90t-82.5 -50t-91.5 -17h-182q100 169 100 373q0 119 -43 189.5t-120 70.5q-56 0 -103 -54t-74 -120q-22 40 -34 59.5t-36.5 52t-51.5 47.5t-58 15q-70 0 -117 -61t-47 -199q0 -123 53 -206 t152 -83q26 0 53 10l17 8v-106q-27 -10 -70 -10q-133 0 -226 107.5t-93 279.5z" />
<glyph unicode="&#xe58;" horiz-adv-x="1062" d="M23 373q0 144 90.5 244t253.5 100h286q75 0 123.5 42t48.5 138v250h115v-244q0 -144 -72 -215.5t-186 -71.5h-315q-103 0 -166.5 -75t-63.5 -174q0 -121 46 -202t126 -81q51 0 87.5 37t56.5 90q29 -48 92 -87.5t141 -39.5q28 0 54 6.5t52 22t42 46.5t16 74q0 128 -92 162 l24 94q79 -22 131 -87t52 -169q0 -128 -76 -187.5t-203 -59.5q-86 0 -138.5 19.5t-94.5 51.5q-58 -71 -166 -71q-47 0 -92.5 25t-84.5 71.5t-63 122.5t-24 168z" />
<glyph unicode="&#xe59;" horiz-adv-x="1214" d="M25 373q0 91 26.5 162.5t69 112.5t91 62t97.5 21q124 0 191 -67q48 153 186 153q38 0 69.5 -13.5t52.5 -32t39.5 -37.5t40 -32.5t44.5 -13.5q63 0 89 58.5t26 171.5v229h114v-229q0 -330 -200 -330q-59 0 -103 18t-65.5 39t-50.5 39t-62 18q-98 -12 -98 -127 q0 -9 0.5 -16t2.5 -19t4.5 -23t9 -35t13 -48.5t19 -69.5t25.5 -91.5t33.5 -120.5t41.5 -152h-115l-143 512q-8 23 -17 40t-27 37.5t-48.5 32t-71.5 11.5q-27 0 -55.5 -13.5t-56.5 -41.5t-46 -81.5t-18 -123.5q0 -118 55 -203.5t150 -85.5q36 0 53 10l19 8v-106 q-27 -10 -72 -10q-128 0 -220.5 108t-92.5 279z" />
<glyph unicode="&#xe5a;" horiz-adv-x="1044" d="M29 889h114q25 -92 72 -140.5t129 -48.5q87 0 148 49t86 140h124v-580q0 -161 -38 -235t-148 -74h-14v100h14q26 0 39 10.5t23 59t10 145.5v430q-20 -35 -47.5 -64.5t-80 -55t-116.5 -25.5q-129 0 -210 76t-105 213zM817 0v889h115v-889h-115z" />
<glyph unicode="&#xe5b;" horiz-adv-x="1396" d="M88 356q0 160 108 267.5t253 107.5q115 0 205 -68t132 -180h-118q-30 70 -86 109t-133 39q-103 0 -174.5 -77.5t-71.5 -197.5q0 -117 70.5 -193.5t183.5 -76.5q118 10 215 100l106 -92l80 92l94 -92l84 92q23 -37 64 -67.5t80 -30.5q37 0 54 20.5t17 49.5q0 72 -28 100 h114q29 -29 29 -100q0 -67 -45.5 -119.5t-142.5 -52.5q-66 0 -142 86l-84 -95l-94 95l-80 -95l-106 95q-94 -75 -215 -86q-158 0 -263.5 108t-105.5 262z" />
<glyph unicode="&#x2000;" horiz-adv-x="923" />
<glyph unicode="&#x2001;" horiz-adv-x="1847" />
<glyph unicode="&#x2002;" horiz-adv-x="923" />
<glyph unicode="&#x2003;" horiz-adv-x="1847" />
<glyph unicode="&#x2004;" horiz-adv-x="615" />
<glyph unicode="&#x2005;" horiz-adv-x="461" />
<glyph unicode="&#x2006;" horiz-adv-x="307" />
<glyph unicode="&#x2007;" horiz-adv-x="307" />
<glyph unicode="&#x2008;" horiz-adv-x="230" />
<glyph unicode="&#x2009;" horiz-adv-x="369" />
<glyph unicode="&#x200a;" horiz-adv-x="102" />
<glyph unicode="&#x2010;" horiz-adv-x="624" d="M111 395v101h401v-101h-401z" />
<glyph unicode="&#x2011;" horiz-adv-x="624" d="M111 395v101h401v-101h-401z" />
<glyph unicode="&#x2012;" horiz-adv-x="624" d="M111 395v101h401v-101h-401z" />
<glyph unicode="&#x2013;" horiz-adv-x="839" d="M111 395v101h616v-101h-616z" />
<glyph unicode="&#x2014;" horiz-adv-x="1226" d="M111 395v101h1003v-101h-1003z" />
<glyph unicode="&#x2018;" horiz-adv-x="313" d="M59 737v115q0 79 144 223h86q-115 -165 -115 -223v-115h-115z" />
<glyph unicode="&#x2019;" horiz-adv-x="317" d="M31 737l55 90q42 66 57 134v114h115v-114q0 -83 -141 -224h-86z" />
<glyph unicode="&#x201c;" horiz-adv-x="587" d="M84 737v115q0 82 141 223h86q-43 -60 -77.5 -126.5t-34.5 -96.5v-115h-115zM299 737v115q0 80 143 223h86q-114 -163 -114 -223v-115h-115z" />
<glyph unicode="&#x201d;" horiz-adv-x="589" d="M66 737l55 90q42 66 57 134v114h115v-114q0 -49 -44 -111.5t-99 -112.5h-84zM281 737l57 90q33 51 57 134v114h115v-114q0 -48 -45 -112t-98 -112h-86z" />
<glyph unicode="&#x2022;" horiz-adv-x="524" d="M76 444q0 78 54 132.5t132 54.5q79 0 133 -54.5t54 -132.5t-54 -132t-133 -54q-78 0 -132 54t-54 132z" />
<glyph unicode="&#x2026;" horiz-adv-x="1191" d="M111 0v115h114v-115h-114zM537 0v115h116v-115h-116zM965 0v115h114v-115h-114z" />
<glyph unicode="&#x202f;" horiz-adv-x="369" />
<glyph unicode="&#x205f;" horiz-adv-x="461" />
<glyph unicode="&#x20ac;" horiz-adv-x="983" d="M55 338v100h70q-2 16 -2 47q0 22 4 68h-72v100h90q46 181 181.5 273t335.5 92q59 0 88 -1t68 -8t69 -22v-123q-114 54 -248 54t-232 -70.5t-143 -194.5h451v-100h-473q-4 -46 -4 -68q0 -31 2 -47h432v-100h-416q37 -123 128.5 -187.5t231.5 -64.5q143 0 271 64v-111 q-56 -33 -120.5 -43t-162.5 -10q-186 0 -308 92.5t-159 259.5h-82z" />
<glyph unicode="&#xe000;" horiz-adv-x="716" d="M0 0v717h717v-717h-717z" />
<glyph horiz-adv-x="659" />
<glyph horiz-adv-x="1470" d="M88 674q40 113 135 171t223 58q166 0 269.5 -81t103.5 -191v-338q0 -49 18.5 -94.5t62.5 -79t106 -33.5h51q91 0 141.5 64.5t50.5 142.5v596h115v-588q0 -81 -30 -151t-95 -117t-154 -47h-108q-67 0 -120.5 27t-85.5 72.5t-49 100.5t-17 115v330q0 55 -42 95.5 t-99.5 58.5t-117.5 18q-103 0 -169 -33.5t-89 -81.5l129 -115q-43 -50 -43 -172v-251q0 -50 29 -50h57v-100h-86q-62 0 -88 37.5t-26 105.5v258q0 122 43 172l-58 52q-12 11 -27.5 23t-23 18t-6.5 8z" />
<glyph horiz-adv-x="872" d="M35 719q19 29 46 57t68.5 59t100.5 49.5t125 18.5q73 0 141 -26q27 9 45 16.5t45.5 23t42.5 38t15 49.5h114q0 -72 -52 -119.5t-116 -61.5q86 -66 133.5 -166t47.5 -213q0 -98 -35 -182t-93 -141t-133 -89t-155 -32h-96l-93 344q-6 14 -22 14h-58v101h87q81 0 102 -64 l78 -295q127 0 215 102.5t88 241.5q0 154 -90.5 256.5t-210.5 102.5q-100 0 -183.5 -69t-117.5 -150z" />
<glyph d="M-690 1618q0 41 16 71.5t39 46.5t54 25.5t53.5 12t46.5 2.5q75 0 137.5 12t92 24.5t71.5 34.5v-98q-31 -17 -58.5 -27.5t-86 -20t-134.5 -9.5q-74 0 -98.5 -19.5t-24.5 -54.5q0 -20 18 -38.5t40 -18.5q27 0 46.5 16t28.5 37h39q16 -53 45 -53q35 0 35 18v14h107v-18 q0 -98 -101 -98q-25 0 -44.5 5.5t-30 14t-17.5 16.5t-10 15l-4 8q-6 -17 -13.5 -28t-28 -21t-52.5 -10q-24 0 -50 6.5t-53.5 21t-45 44t-17.5 69.5z" />
<glyph d="M-217 1405v229h115v-229h-115z" />
<glyph d="M-557 1534v100h98q35 0 58 -13.5t32.5 -32t15.5 -37.5t14.5 -32.5t23.5 -13.5h215l-27 -100h-217h-48.5t-31 3t-21 6t-9 14.5t-5.5 21.5v33v8q-2 21 -7 32t-21 11h-70z" />
<glyph d="M-668 1526q0 43 29 75.5t86 32.5q66 0 94 -28q28 28 101 28q35 0 58 -13.5t32 -32t15 -37.5t14.5 -32.5t23.5 -13.5h115l-27 -100h-117q-50 0 -76.5 14.5t-32 35.5t-6 42.5t-5.5 36t-23 14.5q-17 0 -30 -17t-13 -40h-57q0 22 -10.5 39.5t-26.5 17.5q-29 0 -29 -51 q0 -35 11.5 -59t25.5 -33h-115q-19 19 -28 44t-9 77z" />
<glyph d="M-332 1470v101h115v63h115v-63h114v-101h-114v-65h-115v65h-115z" />
<glyph d="M-217 1405v43q0 78 45 132t127 54h129l-25 -100h-75q-41 0 -63.5 -26.5t-22.5 -65.5v-37h-115z" />
<glyph d="M-322 1565q0 66 48 115t114 49q65 0 113.5 -49t48.5 -115t-48 -113t-114 -47t-114 47.5t-48 112.5zM-225 1565q0 -27 18 -45.5t47 -18.5t47.5 18.5t18.5 45.5q0 29 -18.5 48t-47.5 19t-47 -19t-18 -48z" />
<glyph d="M-240 1485q0 66 48.5 107.5t121.5 41.5q0 66 48.5 97.5t152.5 31.5v-71q-29 0 -44 -1t-36.5 -8.5t-32 -22t-18.5 -42.5t-8 -70q-117 0 -117 -78q0 -27 23 -65h-115q-23 44 -23 80z" />
</font>
</defs>
</svg>
